<?xml version="1.0" encoding="utf-8"?>
<!-- Generator: Adobe Adobe Illustrator 24.2.0, SVG Export Plug-In . SVG Version: 6.00 Build 0)  -->
<svg version="1.1" id="Layer_1" xmlns="http://www.w3.org/2000/svg" xmlns:xlink="http://www.w3.org/1999/xlink" x="0px" y="0px"
	 width="612px" height="1008px" viewBox="0 0 612 1008" style="enable-background:new 0 0 612 1008;" xml:space="preserve">
<style type="text/css">
	.st0{fill:#FFFFFF;}
	.st1{fill:url(#SVGID_1_);}
	.st2{font-family:'Arial-BoldMT';}
	.st3{font-size:47.4344px;}
	.st4{letter-spacing:6.17;}
	.st5{font-size:59.4013px;}
	.st6{letter-spacing:4.11;}
	.st7{fill:none;}
</style>
<g>
	<g id="Layer_2_1_">
		<g>
			
				<linearGradient id="SVGID_1_" gradientUnits="userSpaceOnUse" x1="-2327.0713" y1="-2626.7473" x2="-2100.2534" y2="-2624.4602" gradientTransform="matrix(-0.8109 -0.0511 -0.0502 0.7963 -1680.2562 2437.0161)">
				<stop  offset="0" style="stop-color:#FF9B70"/>
				<stop  offset="0.5328" style="stop-color:#FF9971"/>
				<stop  offset="0.7247" style="stop-color:#FF9274"/>
				<stop  offset="0.8615" style="stop-color:#FF8779"/>
				<stop  offset="0.9713" style="stop-color:#FF7680"/>
				<stop  offset="1" style="stop-color:#FF7083"/>
			</linearGradient>
			<path class="st1" d="M105.11,537.49c1.51,17.41,17.52,30.54,35.69,29.25s31.74-16.49,30.23-33.91
				c-0.54-6.21-2.92-12.02-6.84-16.86l18.9-23.65c7.34,3.55,15.55,5.14,23.92,4.55c12.12-0.86,23.12-6.18,30.98-14.99
				c3.82-4.28,6.67-9.14,8.48-14.34l33.54,4.21c2.27,14.5,15.97,25.15,31.42,24.06c16.12-1.14,28.15-14.63,26.81-30.07
				c-1.22-14.1-13.16-25.03-27.5-25.95c-1.37-0.09-2.76-0.09-4.16,0.01c-11.5,0.81-20.92,7.92-24.89,17.53l-32.93-4.14
				c-0.02-0.99-0.06-1.99-0.15-2.99c-1-11.61-6.67-22.19-15.94-29.79c-7.6-6.23-16.89-9.85-26.66-10.48
				c-2.15-0.14-4.33-0.13-6.52,0.02c-2.47,0.17-4.89,0.54-7.25,1.07l-10.59-26.86c1.14-0.89,2.21-1.89,3.19-2.98
				c4.28-4.8,6.33-10.92,5.79-17.24c-1.03-11.91-11.12-21.14-23.23-21.93c-1.16-0.07-2.33-0.07-3.51,0.01
				c-13.62,0.96-23.78,12.36-22.65,25.4c0.55,6.32,3.63,12.08,8.68,16.22c4.94,4.05,11.18,6.07,17.62,5.72l10.78,27.35
				c-3.62,2.24-6.92,5-9.8,8.23c-7.86,8.81-11.63,20.06-10.63,31.67c0.89,10.28,5.44,19.76,12.91,27.08l-18.42,23.05
				c-3.85-1.82-8.02-2.89-12.33-3.17c-1.56-0.1-3.14-0.1-4.72,0.01c-8.8,0.62-16.78,4.49-22.5,10.9
				C107.13,520.9,104.39,529.07,105.11,537.49z M307.76,453.32c0.73-0.05,1.44-0.05,2.15-0.01c7.41,0.48,13.59,6.13,14.22,13.42
				c0.69,7.99-5.53,14.97-13.87,15.55c-0.73,0.05-1.44,0.05-2.15,0.01c-7.41-0.48-13.59-6.13-14.22-13.42
				C293.2,460.88,299.42,453.91,307.76,453.32z M159.74,372.65c-1.96-1.61-3.15-3.84-3.37-6.29c-0.44-5.06,3.5-9.48,8.78-9.85
				c5.28-0.37,9.93,3.44,10.37,8.5c0.21,2.45-0.59,4.83-2.24,6.69c-1.66,1.86-3.98,2.99-6.54,3.17
				C164.19,375.04,161.7,374.25,159.74,372.65z M200.84,425.4c1.4-0.1,2.79-0.1,4.16-0.01c14.33,0.93,26.28,11.86,27.5,25.95
				c0.65,7.48-1.79,14.73-6.85,20.41s-12.15,9.11-19.96,9.66c-1.41,0.1-2.81,0.1-4.2,0.01c-6.3-0.41-12.28-2.74-17.18-6.76
				c-5.98-4.9-9.63-11.72-10.27-19.2C172.69,440.03,184.72,426.54,200.84,425.4z M124.73,524.23c3.03-3.39,7.25-5.44,11.9-5.77
				c0.84-0.06,1.66-0.06,2.48-0.01c8.55,0.55,15.68,7.07,16.4,15.48c0.8,9.21-6.38,17.26-15.99,17.94
				c-0.84,0.06-1.66,0.06-2.48,0.01c-8.55-0.55-15.68-7.07-16.4-15.48C120.25,531.94,121.71,527.62,124.73,524.23z"/>
		</g>
		<text transform="matrix(0.9725 0 0 1 106.8853 614.0869)" class="st0 st2 st3 st4">STUDENT HUB</text>
		<text transform="matrix(0.9725 0 0 1 205.9117 555.5967)" class="st0 st2 st5 st6">OSLO</text>
	</g>
</g>
<rect x="573.27" y="785.07" class="st7" width="159.42" height="0.67"/>
</svg>
